<svg preserveAspectRatio="none" width="100%" height="100%" overflow="visible" style="display: block;" viewBox="0 0 16.25 16.25" fill="none" xmlns="http://www.w3.org/2000/svg">
<g id="Icon wrapper">
<path id="Pixel color override hack" d="M0.625 13.333C0.97007 13.333 1.24982 13.613 1.25 13.958C1.25 14.234 1.35964 14.499 1.55469 14.6943C1.75004 14.8897 2.01573 15 2.29199 15C2.63691 15.0002 2.91682 15.2801 2.91699 15.625C2.91682 15.9699 2.63691 16.2498 2.29199 16.25C1.6842 16.25 1.10067 16.0079 0.670898 15.5781C0.241433 15.1484 0 14.5656 0 13.958C0.000175687 13.613 0.27993 13.333 0.625 13.333ZM6.45801 15C6.80319 15 7.08301 15.2798 7.08301 15.625C7.08301 15.9702 6.80319 16.25 6.45801 16.25H5.625C5.27982 16.25 5 15.9702 5 15.625C5 15.2798 5.27982 15 5.625 15H6.45801ZM10.625 15C10.97 15.0002 11.25 15.2799 11.25 15.625C11.25 15.9701 10.97 16.2498 10.625 16.25H9.79199C9.44681 16.25 9.16699 15.9702 9.16699 15.625C9.16699 15.2798 9.44681 15 9.79199 15H10.625ZM15.625 13.333C15.9699 13.3332 16.2498 13.6131 16.25 13.958C16.25 14.5658 16.0079 15.1484 15.5781 15.5781C15.1484 16.0079 14.5658 16.25 13.958 16.25C13.6131 16.2498 13.3332 15.9699 13.333 15.625C13.3332 15.2801 13.6131 15.0002 13.958 15C14.2343 15 14.499 14.8897 14.6943 14.6943C14.8897 14.499 15 14.2343 15 13.958C15.0002 13.6131 15.2801 13.3332 15.625 13.333ZM0.625 9.16699C0.970178 9.16699 1.25 9.44681 1.25 9.79199V10.625C1.24982 10.97 0.970069 11.25 0.625 11.25C0.279931 11.25 0.000176202 10.97 0 10.625V9.79199C0 9.44681 0.279822 9.16699 0.625 9.16699ZM15.625 9.16699C15.9702 9.16699 16.25 9.44681 16.25 9.79199V10.625C16.2498 10.97 15.9701 11.25 15.625 11.25C15.2799 11.25 15.0002 10.97 15 10.625V9.79199C15 9.44681 15.2798 9.16699 15.625 9.16699ZM0.625 5C0.970178 5 1.25 5.27982 1.25 5.625V6.45801C1.25 6.80319 0.970178 7.08301 0.625 7.08301C0.279822 7.08301 0 6.80319 0 6.45801V5.625C0 5.27982 0.279822 5 0.625 5ZM15.625 5C15.9702 5 16.25 5.27982 16.25 5.625V6.45801C16.25 6.80319 15.9702 7.08301 15.625 7.08301C15.2798 7.08301 15 6.80319 15 6.45801V5.625C15 5.27982 15.2798 5 15.625 5ZM2.29199 0C2.63702 0.00017588 2.91699 0.279931 2.91699 0.625C2.91699 0.970069 2.63702 1.24982 2.29199 1.25C2.01572 1.25 1.75004 1.35934 1.55469 1.55469C1.35934 1.75004 1.25 2.01572 1.25 2.29199C1.24982 2.63702 0.970069 2.91699 0.625 2.91699C0.279931 2.91699 0.00017588 2.63702 0 2.29199C0 1.6842 0.241128 1.10067 0.670898 0.670898C1.10067 0.241128 1.6842 0 2.29199 0ZM13.958 0C14.5656 0 15.1484 0.241433 15.5781 0.670898C16.0079 1.10067 16.25 1.6842 16.25 2.29199C16.2498 2.63691 15.9699 2.91682 15.625 2.91699C15.2801 2.91682 15.0002 2.63691 15 2.29199C15 2.01573 14.8897 1.75004 14.6943 1.55469C14.499 1.35964 14.234 1.25 13.958 1.25C13.613 1.24982 13.333 0.97007 13.333 0.625C13.333 0.27993 13.613 0.000175687 13.958 0ZM6.45801 0C6.80319 0 7.08301 0.279822 7.08301 0.625C7.08301 0.970178 6.80319 1.25 6.45801 1.25H5.625C5.27982 1.25 5 0.970178 5 0.625C5 0.279822 5.27982 0 5.625 0H6.45801ZM10.625 0C10.97 0.000176202 11.25 0.279931 11.25 0.625C11.25 0.970069 10.97 1.24982 10.625 1.25H9.79199C9.44681 1.25 9.16699 0.970178 9.16699 0.625C9.16699 0.279822 9.44681 0 9.79199 0H10.625Z" fill="var(--fill-0, #F8FAFC)"/>
</g>
</svg>
